<?xml version="1.0" encoding="UTF-8" standalone="no"?>
<svg width="36px" height="36px" viewBox="0 0 36 36" version="1.1" xmlns="http://www.w3.org/2000/svg" xmlns:xlink="http://www.w3.org/1999/xlink">
    <!-- Generator: Sketch 40.1 (33804) - http://www.bohemiancoding.com/sketch -->
    <title>email</title>
    <desc>Created with Sketch.</desc>
    <defs></defs>
    <g id="Page-1" stroke="none" stroke-width="1" fill="none" fill-rule="evenodd">
        <g id="email">
            <path d="M35.9997605,18.0000003 C35.9997605,27.9412804 27.9403204,36.0000005 18.0002403,36.0000005 C8.05848012,36.0000005 0,27.9412804 0,18.0000003 C0,8.05896012 8.05848012,0 18.0002403,0 C27.9403204,0 35.9997605,8.05896012 35.9997605,18.0000003" id="Fill-1" fill="#FFFFFF"></path>
            <path d="M18,17.0423229 L26.0281687,12.0187997 L9.97183135,12.0187997 L18,17.0423229 Z M26.0281687,24.0376968 L26.0281687,14.0375986 L18,19.0141728 L9.97183135,14.0375986 L9.97183135,24.0376968 L26.0281687,24.0376968 Z M26.0281687,10 C26.5602504,10 27.0219094,10.2034447 27.4131455,10.6103348 C27.8043816,11.017225 28,11.4867127 28,12.0187997 L28,24.0376968 C28,24.569783 27.8043816,25.0392716 27.4131455,25.4461609 C27.0219094,25.8530503 26.5602504,26.0564957 26.0281687,26.0564957 L9.97183135,26.0564957 C9.43974958,26.0564957 8.97809065,25.8530503 8.58685455,25.4461609 C8.19561845,25.0392716 8,24.569783 8,24.0376968 L8,12.0187997 C8,11.4867127 8.19561845,11.017225 8.58685455,10.6103348 C8.97809065,10.2034447 9.43974958,10 9.97183135,10 L26.0281687,10 Z" id="Shape" fill="#333333"></path>
        </g>
    </g>
</svg>