<?xml version="1.0" encoding="UTF-8" standalone="no"?>
<svg width="36px" height="36px" viewBox="0 0 36 36" version="1.1" xmlns="http://www.w3.org/2000/svg" xmlns:xlink="http://www.w3.org/1999/xlink">
    <!-- Generator: Sketch 40.1 (33804) - http://www.bohemiancoding.com/sketch -->
    <title>behance</title>
    <desc>Created with Sketch.</desc>
    <defs></defs>
    <g id="Page-1" stroke="none" stroke-width="1" fill="none" fill-rule="evenodd">
        <g id="behance">
            <path d="M36.0000005,18.0000003 C36.0000005,27.9412804 27.9415204,36.0000005 18.0002403,36.0000005 C8.05920012,36.0000005 0,27.9412804 0,18.0000003 C0,8.05896012 8.05920012,0 18.0002403,0 C27.9415204,0 36.0000005,8.05896012 36.0000005,18.0000003" id="Fill-1" fill="#FFFFFF"></path>
            <g id="be" transform="translate(8.000000, 12.000000)" fill="#333333">
                <path d="M6.49644958,9.8670029 L3.15767247,9.8670029 L3.15767247,6.66003051 L6.65763192,6.66003051 C6.65763192,6.66003051 7.92527652,6.64370542 7.92527652,8.30825953 C7.92527652,9.69589181 6.99817507,9.85309634 6.49644958,9.8670029 L6.49644958,9.8670029 Z M3.15767247,2.13314471 L6.20741207,2.13314471 L6.65763192,2.13314471 C6.65763192,2.13314471 7.50838384,2.13314471 7.50838384,3.38110681 C7.50838384,4.62967355 7.00787025,4.81045876 6.4407023,4.81045876 L3.15767247,4.81045876 L3.15767247,2.13314471 Z M8.22582705,5.47857801 C8.22582705,5.47857801 10.0606396,5.34253563 10.0606396,3.19548454 C10.0606396,1.04782883 8.55970476,1.78813934e-07 6.65763192,1.78813934e-07 L3.15767247,1.78813934e-07 L3.0546612,1.78813934e-07 L0.400000125,1.78813934e-07 L0.400000125,11.9995428 L3.0546612,11.9995428 L3.15767247,11.9995428 L6.65763192,11.9995428 C6.65763192,11.9995428 10.4775323,12.1198647 10.4775323,8.45820846 C10.4775323,8.45820846 10.6447741,5.47857801 8.22582705,5.47857801 L8.22582705,5.47857801 Z" id="Fill-17"></path>
                <path d="M17.316432,6.45568776 L13.4566765,6.45568776 C13.4566765,6.45568776 13.7094937,4.62229383 15.5242123,4.62229383 C17.339523,4.62229383 17.316432,6.45568776 17.316432,6.45568776 M15.4786223,2.88000022 C10.9598842,2.88000022 10.9640288,7.4499998 10.9640288,7.4499998 C10.9640288,7.4499998 10.65378,11.996625 15.4786223,11.996625 C15.4786223,11.996625 19.499423,12.2291705 19.499423,8.83388558 L17.4312951,8.83388558 C17.4312951,8.83388558 17.5005682,10.1128861 15.5473034,10.1128861 C15.5473034,10.1128861 13.4797675,10.2531327 13.4797675,8.04335057 L19.568104,8.04335057 C19.568104,8.04335057 20.2341916,2.88000022 15.4786223,2.88000022" id="Fill-19"></path>
                <polygon id="Fill-21" points="17.6800004 0.72000019 12.8800003 0.72000019 12.8800003 1.92000021 17.6800004 1.92000021"></polygon>
            </g>
        </g>
    </g>
</svg>