<?xml version="1.0" encoding="UTF-8" standalone="no"?>
<svg width="36px" height="36px" viewBox="0 0 36 36" version="1.1" xmlns="http://www.w3.org/2000/svg" xmlns:xlink="http://www.w3.org/1999/xlink">
    <!-- Generator: Sketch 40.1 (33804) - http://www.bohemiancoding.com/sketch -->
    <title>codepen</title>
    <desc>Created with Sketch.</desc>
    <defs></defs>
    <g id="Page-1" stroke="none" stroke-width="1" fill="none" fill-rule="evenodd">
        <g id="codepen">
            <path d="M35.9997605,18.0000003 C35.9997605,27.9412804 27.9403204,36.0000005 18.0002403,36.0000005 C8.05848012,36.0000005 0,27.9412804 0,18.0000003 C0,8.05896012 8.05848012,0 18.0002403,0 C27.9403204,0 35.9997605,8.05896012 35.9997605,18.0000003" id="Fill-1" fill="#FFFFFF"></path>
            <path d="M27.109375,19.5819375 L24.744375,18 L27.109375,16.4180625 L27.109375,19.5819375 Z M18.9453125,26.2878125 L18.9453125,21.878875 L23.0441875,19.1378125 L26.3524375,21.3501875 L18.9453125,26.2878125 Z M18,20.2364375 L14.6566875,18 L18,15.7635625 L21.344,18 L18,20.2364375 Z M17.0546875,26.2878125 L9.6475625,21.3501875 L12.9565,19.1378125 L17.0546875,21.878875 L17.0546875,26.2878125 Z M8.890625,16.4180625 L11.2563125,18 L8.890625,19.5819375 L8.890625,16.4180625 Z M17.0546875,9.7121875 L17.0546875,14.121125 L12.9565,16.862875 L9.6475625,14.6498125 L17.0546875,9.7121875 Z M18.9453125,9.7121875 L26.3524375,14.6498125 L23.0441875,16.862875 L18.9453125,14.121125 L18.9453125,9.7121875 Z M28.99175,14.525375 C28.9896875,14.5109375 28.98625,14.497875 28.9841875,14.484125 C28.979375,14.4573125 28.9745625,14.4305 28.9676875,14.4050625 C28.9635625,14.38925 28.957375,14.374125 28.9525625,14.359 C28.945,14.335625 28.9374375,14.3129375 28.9285,14.29025 C28.9223125,14.2744375 28.91475,14.258625 28.9071875,14.2441875 C28.8975625,14.2221875 28.88725,14.2015625 28.874875,14.181625 C28.866625,14.1665 28.857,14.1520625 28.8480625,14.137625 C28.8356875,14.1176875 28.822625,14.0984375 28.8081875,14.079875 C28.797875,14.066125 28.786875,14.052375 28.775875,14.0393125 C28.76075,14.0214375 28.7449375,14.00425 28.7284375,13.98775 C28.7160625,13.975375 28.704375,13.9623125 28.6913125,13.9513125 C28.6734375,13.9355 28.6555625,13.920375 28.6376875,13.9059375 C28.62325,13.8949375 28.6095,13.8839375 28.5950625,13.873625 C28.5895625,13.8701875 28.58475,13.865375 28.57925,13.8619375 L18.5245625,7.1588125 C18.2069375,6.9470625 17.79375,6.9470625 17.4754375,7.1588125 L7.4214375,13.8619375 C7.4159375,13.865375 7.411125,13.8701875 7.405625,13.873625 C7.3905,13.8839375 7.37675,13.8949375 7.363,13.9059375 C7.3444375,13.920375 7.3265625,13.9355 7.309375,13.9513125 C7.2963125,13.9623125 7.2839375,13.975375 7.2715625,13.98775 C7.2550625,14.00425 7.23925,14.0214375 7.2248125,14.0393125 C7.213125,14.052375 7.202125,14.066125 7.1918125,14.079875 C7.1780625,14.0984375 7.165,14.1176875 7.152625,14.137625 C7.143,14.1520625 7.1340625,14.1665 7.125125,14.181625 C7.1134375,14.2015625 7.103125,14.2221875 7.0928125,14.2441875 C7.0859375,14.258625 7.078375,14.2744375 7.0721875,14.29025 C7.0625625,14.3129375 7.055,14.335625 7.0474375,14.359 C7.042625,14.374125 7.037125,14.38925 7.033,14.4050625 C7.026125,14.4305 7.0213125,14.4573125 7.0165,14.484125 C7.01375,14.497875 7.0103125,14.5109375 7.0089375,14.525375 C7.0034375,14.56525 7,14.6065 7,14.6484375 L7,21.3515625 C7,21.3928125 7.0034375,21.4340625 7.0089375,21.4753125 C7.0103125,21.488375 7.01375,21.502125 7.0165,21.515875 C7.0213125,21.5426875 7.026125,21.5688125 7.033,21.5949375 C7.037125,21.61075 7.042625,21.625875 7.0474375,21.641 C7.055,21.6636875 7.0625625,21.6870625 7.0721875,21.7104375 C7.078375,21.7255625 7.0859375,21.7406875 7.0928125,21.7558125 C7.103125,21.777125 7.1134375,21.79775 7.125125,21.8190625 C7.1340625,21.8335 7.143,21.8479375 7.152625,21.862375 C7.165,21.8823125 7.1780625,21.900875 7.1918125,21.9194375 C7.202125,21.933875 7.213125,21.947625 7.2248125,21.9606875 C7.23925,21.977875 7.2550625,21.99575 7.2715625,22.0115625 C7.2839375,22.024625 7.2963125,22.037 7.309375,22.0486875 C7.3265625,22.0645 7.3444375,22.079625 7.363,22.0940625 C7.37675,22.1050625 7.3905,22.1160625 7.405625,22.126375 C7.411125,22.1298125 7.4159375,22.134625 7.4214375,22.1380625 L17.4754375,28.8411875 C17.63425,28.9470625 17.817125,29 18,29 C18.182875,29 18.36575,28.9470625 18.5245625,28.8411875 L28.57925,22.1380625 C28.58475,22.134625 28.5895625,22.1298125 28.5950625,22.126375 C28.6095,22.1160625 28.62325,22.1050625 28.6376875,22.0940625 C28.6555625,22.079625 28.6734375,22.0645 28.6913125,22.0486875 C28.704375,22.037 28.7160625,22.024625 28.7284375,22.0115625 C28.7449375,21.99575 28.76075,21.977875 28.775875,21.9606875 C28.786875,21.947625 28.797875,21.933875 28.8081875,21.9194375 C28.822625,21.900875 28.8356875,21.8823125 28.8480625,21.862375 C28.857,21.8479375 28.866625,21.8335 28.874875,21.8190625 C28.88725,21.79775 28.8975625,21.777125 28.9071875,21.7558125 C28.91475,21.7406875 28.9223125,21.7255625 28.9285,21.7104375 C28.9374375,21.6870625 28.945,21.6636875 28.9525625,21.641 C28.957375,21.625875 28.9635625,21.61075 28.9676875,21.5949375 C28.9745625,21.5688125 28.979375,21.5426875 28.9841875,21.515875 C28.98625,21.502125 28.9896875,21.488375 28.99175,21.4753125 C28.99725,21.4340625 29,21.3928125 29,21.3515625 L29,14.6484375 C29,14.6065 28.99725,14.56525 28.99175,14.525375 L28.99175,14.525375 Z" id="Fill-65" fill="#333333"></path>
        </g>
    </g>
</svg>