<?xml version="1.0" encoding="UTF-8" standalone="no"?>
<svg width="36px" height="36px" viewBox="0 0 36 36" version="1.1" xmlns="http://www.w3.org/2000/svg" xmlns:xlink="http://www.w3.org/1999/xlink">
    <!-- Generator: Sketch 40.1 (33804) - http://www.bohemiancoding.com/sketch -->
    <title>linkedin</title>
    <desc>Created with Sketch.</desc>
    <defs></defs>
    <g id="Page-1" stroke="none" stroke-width="1" fill="none" fill-rule="evenodd">
        <g id="linkedin">
            <path d="M36.0000005,18.0000003 C36.0000005,27.9412804 27.9415204,36.0000005 18.0002403,36.0000005 C8.05920012,36.0000005 0,27.9412804 0,18.0000003 C0,8.05896012 8.05920012,0 18.0002403,0 C27.9415204,0 36.0000005,8.05896012 36.0000005,18.0000003" id="Fill-1" fill="#FFFFFF"></path>
            <path d="M27,27.0088026 L23.3017048,27.0088026 L23.3017048,20.7064185 C23.3017048,18.9781838 22.6449365,18.0130816 21.27834,18.0130816 C19.7909529,18.0130816 19.0141276,19.0177953 19.0141276,20.7064185 L19.0141276,27.0088026 L15.4498268,27.0088026 L15.4498268,15.0028527 L19.0141276,15.0028527 L19.0141276,16.6198329 C19.0141276,16.6198329 20.0858385,14.6360796 22.6319772,14.6360796 C25.1773823,14.6360796 27,16.1911974 27,19.4070638 L27,27.0088026 Z M11.1974598,13.4303742 C9.98368539,13.4303742 9,12.4388644 9,11.2150649 C9,9.9917544 9.98368539,9 11.1974598,9 C12.4112341,9 13.3949195,9.9917544 13.3949195,11.2150649 C13.3949195,12.4388644 12.4112341,13.4303742 11.1974598,13.4303742 L11.1974598,13.4303742 Z M9.35723698,27.0088026 L13.0736263,27.0088026 L13.0736263,15.0028527 L9.35723698,15.0028527 L9.35723698,27.0088026 Z" id="Fill-3" fill="#333333"></path>
        </g>
    </g>
</svg>