<?xml version="1.0" encoding="UTF-8" standalone="no"?>
<svg width="36px" height="36px" viewBox="0 0 36 36" version="1.1" xmlns="http://www.w3.org/2000/svg" xmlns:xlink="http://www.w3.org/1999/xlink">
    <!-- Generator: Sketch 40.1 (33804) - http://www.bohemiancoding.com/sketch -->
    <title>dribbble</title>
    <desc>Created with Sketch.</desc>
    <defs></defs>
    <g id="Page-1" stroke="none" stroke-width="1" fill="none" fill-rule="evenodd">
        <g id="dribbble">
            <path d="M35.9997605,18.0000003 C35.9997605,27.9412804 27.9403204,36.0000005 18.0002403,36.0000005 C8.05848012,36.0000005 0,27.9412804 0,18.0000003 C0,8.05896012 8.05848012,0 18.0002403,0 C27.9403204,0 35.9997605,8.05896012 35.9997605,18.0000003" id="Fill-1" fill="#FFFFFF"></path>
            <path d="M23.0438018,25.5534852 C22.642167,23.3965666 22.0533558,21.2880435 21.2840105,19.2307626 C23.0025233,18.9883109 24.8961137,19.0511775 26.9657307,19.4108221 C26.5652821,21.964868 25.106539,24.1708937 23.0438018,25.5534852 M12.4233739,25.1592046 C14.2284765,22.3280711 16.5324793,20.4859601 19.3880478,19.6338207 C20.2378149,21.8521825 20.8629227,24.1343599 21.2595756,26.4720497 C20.2463552,26.8637207 19.1496291,27.0871938 18.0002372,27.0871938 C15.8976449,27.0871938 13.9649111,26.362211 12.4233739,25.1592046 M8.91351794,17.9997628 C8.91351794,17.9207643 8.92300725,17.8443754 8.92537957,17.7656142 C12.4525535,17.7603951 15.4960102,17.3544902 18.0453114,16.5533558 C18.2600069,16.9884403 18.4642641,17.4256599 18.6597438,17.8662008 C15.5624353,18.8345842 13.0086266,20.8187974 11.0180081,23.8062673 C9.70492581,22.2308057 8.91351794,20.2065002 8.91351794,17.9997628 M13.9003839,9.90135438 C15.1207082,11.4988785 16.2022516,13.1443237 17.1424042,14.8341313 C14.9147904,15.4898421 12.2554132,15.8271869 9.18182798,15.8478261 C9.81618789,13.248706 11.5669643,11.08728 13.9003839,9.90135438 M23.5393806,10.8125647 C22.4357747,12.2364346 20.9106065,13.3632893 18.9688578,14.1855374 C18.0372455,12.4798352 16.9730202,10.8161232 15.7714372,9.20128106 C16.4855072,9.02003537 17.2297058,8.91280625 18.0002372,8.91280625 C20.0847999,8.91280625 22.0032997,9.62640183 23.5393806,10.8125647 M27.0610982,17.4875776 C24.7003968,17.1006513 22.529956,17.0793004 20.5504874,17.4204408 C20.3267771,16.9039855 20.0947636,16.3896653 19.8480418,15.8808014 C21.9643935,14.9641347 23.6658256,13.718901 24.9333592,12.1391693 C26.1700526,13.6002847 26.9469893,15.4559179 27.0610982,17.4875776 M18.0002372,7 C11.9249482,7 7,11.9249482 7,17.9997628 C7,24.0750518 11.9249482,28.9997628 18.0002372,28.9997628 C24.0750518,28.9997628 29,24.0750518 29,17.9997628 C29,11.9249482 24.0750518,7 18.0002372,7" id="Fill-4" fill="#333333"></path>
        </g>
    </g>
</svg>